<?xml version="1.0" encoding="utf-8"?>
<!-- Svg Vector Icons : http://www.onlinewebfonts.com/icon -->
<!DOCTYPE svg PUBLIC "-//W3C//DTD SVG 1.1//EN" "http://www.w3.org/Graphics/SVG/1.1/DTD/svg11.dtd">
<svg version="1.1" xmlns="http://www.w3.org/2000/svg" xmlns:xlink="http://www.w3.org/1999/xlink" x="0px" y="0px" viewBox="0 0 256 256" enable-background="new 0 0 256 256" xml:space="preserve">
<metadata> Svg Vector Icons : http://www.onlinewebfonts.com/icon </metadata>
<g><g><path fill="#000000" d="M182.9,64.1c-21.1,21.1-42.2,42.2-63.3,63.3c3.1,3.1,6.2,6.2,9.3,9.3c21.1-21.1,42.2-42.2,63.3-63.3C189.1,70.3,186,67.2,182.9,64.1z"/><path fill="#000000" d="M113.9,145.9c-1.2-1.2-2.4-2.4-3.6-3.6c-0.6,1.9-1.3,3.7-2,5.5C110.2,147.3,112.1,146.6,113.9,145.9z"/><path fill="#000000" d="M128,10C62.8,10,10,62.8,10,128c0,65.2,52.8,118,118,118c65.2,0,118-52.8,118-118C246,62.8,193.2,10,128,10z M184.4,193c0,2.6-2.1,4.7-4.7,4.7c-2,0-4.1,0-6.2,0c-33.9,0-67.8,0-101.8,0c-2.6,0-4.7-2.1-4.7-4.7c0-2,0-4.1,0-6.2c0-33.9,0-67.8,0-101.8c0-2.6,2.1-4.7,4.7-4.7c19.1,0,38.2,0,57.4,0c6,0,6,9.4,0,9.4c-17.6,0-35.1,0-52.7,0c0,0.5,0,1,0,1.5c0,32.4,0,64.7,0,97.1c0.5,0,1,0,1.5,0c32.4,0,64.7,0,97.1,0c0-23.3,0-46.6,0-69.9c0-6,9.4-6,9.4,0C184.4,143.3,184.4,168.1,184.4,193z M202.1,76.7c-0.3,0.3-0.6,0.6-0.9,0.9c-23,23-46,46-69,69c-1.3,1.3-3.4,1.7-5.1,1c0,1.1-0.4,2.1-1,2.9c-0.5,0.8-1.3,1.4-2.4,1.8c-7.2,2.6-14.5,5.1-21.7,7.7c-3.3,1.2-6.9-2.5-5.8-5.8c2.6-7.3,5.1-14.5,7.7-21.7c0.7-2.1,2.7-3.5,4.7-3.4c-0.2-0.6-0.3-1.2-0.3-1.8c0-1.1,0.3-2.3,1.4-3.3c0.3-0.3,0.6-0.6,0.9-0.9c23-23,46-46,69-69c1.8-1.8,4.8-1.8,6.6,0c5.3,5.3,10.6,10.6,15.9,15.9C203.9,71.9,203.9,74.9,202.1,76.7z"/></g></g>
</svg>